<svg xmlns="http://www.w3.org/2000/svg" width="24" height="24"><path d="M0 0h24v24H0z" fill="none"/><path d="M12 22a10 10 0 1 1 10-10 10.011 10.011 0 0 1-10 10zm0-5.5c-1.8 0-4.48.838-4.93 1.78a7.926 7.926 0 0 0 9.86 0 3.419 3.419 0 0 0-1.918-1.228A9.645 9.645 0 0 0 12 16.5zm0-2c1.451 0 4.914.57 6.36 2.33A7.92 7.92 0 0 0 20 12a8 8 0 0 0-16 0 7.919 7.919 0 0 0 1.64 4.83c1.446-1.76 4.91-2.33 6.36-2.33zm0-1.5a3.491 3.491 0 1 1 2.478-1.022A3.479 3.479 0 0 1 12 13zm0-5a1.5 1.5 0 1 0 1.5 1.5A1.5 1.5 0 0 0 12 8z"/></svg>