<svg data-name="check_circle-24px (1)" xmlns="http://www.w3.org/2000/svg" width="24" height="24"><defs><linearGradient id="a" x1=".852" x2=".089" y2=".891" gradientUnits="objectBoundingBox"><stop offset="0" stop-color="#ff4b2b"/><stop offset="1" stop-color="#ff416c"/></linearGradient><linearGradient id="b" x1=".929" y1=".245" x2=".059" y2=".874" gradientUnits="objectBoundingBox"><stop offset="0" stop-color="#8e2de2"/><stop offset="1" stop-color="#4a00e0"/></linearGradient></defs><path data-name="Shape" d="M12 24a12 12 0 1 1 12-12 12.014 12.014 0 0 1-12 12zM5.292 10.308L3.6 12l6 6L20.4 7.2l-1.692-1.7L9.6 14.6l-4.308-4.3z" fill="url(#a)"/><path data-name="Shape" d="M12 24a12 12 0 1 1 12-12 12.014 12.014 0 0 1-12 12zM5.292 10.308L3.6 12l6 6L20.4 7.2l-1.692-1.7L9.6 14.6l-4.308-4.3z" fill="url(#b)"/></svg>