<svg xmlns="http://www.w3.org/2000/svg" width="20.521" height="20.935"><path d="M20.522 10.708a12.31 12.31 0 0 0-.181-2.127h-9.873v4.031h5.654a4.845 4.845 0 0 1-2.092 3.181v2.615h3.373a10.223 10.223 0 0 0 3.119-7.7z" fill="#4285f4"/><path data-name="Path" d="M10.468 20.936a10.02 10.02 0 0 0 6.938-2.527l-3.373-2.616a6.263 6.263 0 0 1-3.562 1 6.266 6.266 0 0 1-5.876-4.319H1.114v2.7a10.469 10.469 0 0 0 9.354 5.762z" fill="#34a853"/><path data-name="Path" d="M4.591 12.47a6.27 6.27 0 0 1 0-4.008V5.77H1.114a10.476 10.476 0 0 0 0 9.4z" fill="#fbbc04"/><path data-name="Path" d="M10.468 4.143a5.688 5.688 0 0 1 4.015 1.569l2.988-2.988A10.06 10.06 0 0 0 10.468 0a10.465 10.465 0 0 0-9.354 5.77l3.477 2.7a6.261 6.261 0 0 1 5.877-4.327z" fill="#ea4335"/></svg>