<svg xmlns="http://www.w3.org/2000/svg" xmlns:xlink="http://www.w3.org/1999/xlink" width="20" height="20"><defs><clipPath id="b"><path fill="none" d="M0 0h20v20H0z"/></clipPath><linearGradient id="a" x1=".5" y1=".997" x2=".5" y2=".008" gradientUnits="objectBoundingBox"><stop offset="0" stop-color="#e09b3d"/><stop offset=".3" stop-color="#c74c4d"/><stop offset=".6" stop-color="#c21975"/><stop offset="1" stop-color="#7024c4"/></linearGradient><linearGradient id="c" y1="1.461" y2="-.452" xlink:href="#a"/><linearGradient id="d" y1="6.581" y2="-1.4" xlink:href="#a"/></defs><g data-name="Icons/Social/24-instagram" clip-path="url(#b)"><g><path d="M14.042 20H5.958A5.965 5.965 0 0 1 0 14.042V5.958A5.965 5.965 0 0 1 5.958 0h8.084A5.965 5.965 0 0 1 20 5.958v8.084A5.965 5.965 0 0 1 14.042 20zM5.958 2.012a3.95 3.95 0 0 0-3.946 3.946v8.084a3.951 3.951 0 0 0 3.946 3.947h8.084a3.951 3.951 0 0 0 3.947-3.947V5.958a3.951 3.951 0 0 0-3.947-3.946z" fill="url(#a)"/><path data-name="Shape" d="M5 10a5 5 0 1 1 5-5 5.006 5.006 0 0 1-5 5zm0-8.055A3.055 3.055 0 1 0 8.055 5 3.059 3.059 0 0 0 5 1.945z" transform="translate(5 5)" fill="url(#c)"/><circle cx="1.199" cy="1.199" r="1.199" transform="translate(13.485 3.507)" fill="url(#d)"/></g></g></svg>