<svg xmlns="http://www.w3.org/2000/svg" width="20.615" height="17.148"><defs><clipPath id="a"><path fill="none" d="M0 0h20.615v17.148H0z"/></clipPath></defs><g data-name="Icons/Social/24-twitter" clip-path="url(#a)"><path d="M20.287 1.995a8.163 8.163 0 0 1-1.421.479A4.432 4.432 0 0 0 20.035.611.232.232 0 0 0 19.7.34a8.2 8.2 0 0 1-2.173.9.554.554 0 0 1-.136.017.576.576 0 0 1-.38-.145A4.444 4.444 0 0 0 14.065 0a4.752 4.752 0 0 0-1.408.217 4.306 4.306 0 0 0-2.9 3.1 4.741 4.741 0 0 0-.107 1.639.159.159 0 0 1-.04.125.165.165 0 0 1-.123.056h-.015A11.654 11.654 0 0 1 1.462.856a.232.232 0 0 0-.381.03 4.449 4.449 0 0 0 .723 5.4A3.983 3.983 0 0 1 .79 5.9a.232.232 0 0 0-.345.2 4.45 4.45 0 0 0 2.6 4.1h-.099a4 4 0 0 1-.749-.071.232.232 0 0 0-.265.3 4.454 4.454 0 0 0 3.518 3.03A8.2 8.2 0 0 1 .857 14.85H.343a.34.34 0 0 0-.333.257.352.352 0 0 0 .169.389 12.2 12.2 0 0 0 6.13 1.653 12.366 12.366 0 0 0 5.238-1.111 11.567 11.567 0 0 0 3.833-2.872 12.591 12.591 0 0 0 2.347-3.93 12.416 12.416 0 0 0 .8-4.3v-.071a.756.756 0 0 1 .283-.589 8.784 8.784 0 0 0 1.767-1.94.232.232 0 0 0-.287-.342z" fill="#76a9ea"/></g></svg>