<svg xmlns="http://www.w3.org/2000/svg" width="19.532" height="19.532"><defs><clipPath id="a"><path fill="none" d="M0 0h19.532v19.532H0z"/></clipPath></defs><g data-name="Icons/Social/24-facebook" clip-path="url(#a)"><path d="M16.9 0H2.632A2.632 2.632 0 0 0 0 2.632V16.9a2.632 2.632 0 0 0 2.632 2.632h7.037l.012-6.98H7.868a.428.428 0 0 1-.428-.426l-.009-2.25a.428.428 0 0 1 .428-.43h1.81V7.273a3.552 3.552 0 0 1 3.791-3.9h1.847a.428.428 0 0 1 .428.428V5.7a.428.428 0 0 1-.428.428h-1.133c-1.224 0-1.461.582-1.461 1.435v1.884H15.4a.428.428 0 0 1 .425.478l-.267 2.25a.428.428 0 0 1-.425.378h-2.408l-.012 6.98H16.9a2.632 2.632 0 0 0 2.632-2.633V2.632A2.632 2.632 0 0 0 16.9 0z" fill="#475993"/></g></svg>